<svg xmlns="http://www.w3.org/2000/svg" width="40" height="40" viewBox="0 0 40 40">
    <path fill="#EC008C" fill-opacity=".8" fill-rule="evenodd" d="M34.305 2H6.358A4.352 4.352 0 0 0 2 6.348v27.967a4.353 4.353 0 0 0 4.358 4.348h27.947a4.353 4.353 0 0 0 4.358-4.348V6.348A4.352 4.352 0 0 0 34.305 2zm-5.953 5.728c0-.632.513-1.145 1.145-1.145h3.437c.633 0 1.146.513 1.146 1.145v3.437c0 .633-.513 1.146-1.146 1.146h-3.437a1.146 1.146 0 0 1-1.145-1.146V7.728zm-7.978 5.612c3.894 0 7.051 3.15 7.051 7.034 0 3.885-3.157 7.034-7.051 7.034-3.893 0-7.05-3.149-7.05-7.034 0-3.884 3.157-7.034 7.05-7.034zm14.852 20.74c0 .632-.513 1.146-1.146 1.146H6.583a1.147 1.147 0 0 1-1.146-1.146V16.894h4.583c-.597.859-.799 2.462-.799 3.48 0 6.135 5.004 11.127 11.153 11.127 6.15 0 11.154-4.992 11.154-11.127 0-1.018-.145-2.597-.885-3.48h4.583V34.08z"/>
</svg>
