<svg xmlns="http://www.w3.org/2000/svg" width="40" height="40" viewBox="0 0 40 40">
    <path fill="#EC008C" fill-opacity=".8" fill-rule="evenodd" d="M16.001 25L16 14l11 5.519L16.001 25zM39.6 12.04s-.391-2.743-1.59-3.951c-1.521-1.586-3.226-1.594-4.008-1.686C28.405 6 20.01 6 20.01 6h-.018s-8.396 0-13.994.403c-.782.092-2.486.1-4.008 1.686C.79 9.297.4 12.039.4 12.039S0 15.263 0 18.484v3.02c0 3.223.4 6.443.4 6.443s.39 2.744 1.589 3.952C3.51 33.484 5.51 33.434 6.4 33.599 9.6 33.905 20 34 20 34s8.405-.012 14.002-.416c.782-.093 2.487-.1 4.008-1.686 1.199-1.208 1.59-3.952 1.59-3.952s.4-3.22.4-6.443v-3.02c0-3.221-.4-6.443-.4-6.443z"/>
</svg>
