<svg xmlns="http://www.w3.org/2000/svg" width="40" height="40" viewBox="0 0 40 40">
    <path fill="#EC008C" fill-opacity=".8" fill-rule="evenodd" d="M17.64 29.289l-1.466-4.086s-2.383 2.724-5.957 2.724c-3.16 0-5.406-2.818-5.406-7.327 0-5.777 2.84-7.842 5.635-7.842 4.033 0 5.315 2.676 6.415 6.105l1.466 4.696c1.467 4.556 4.215 8.219 12.142 8.219 5.682 0 9.531-1.785 9.531-6.48 0-3.805-2.109-5.778-6.049-6.717l-2.932-.657c-2.016-.47-2.611-1.316-2.611-2.724 0-1.598 1.236-2.537 3.252-2.537 2.2 0 3.391.846 3.574 2.865l4.582-.564C39.45 10.737 36.61 9 31.935 9c-4.124 0-8.155 1.596-8.155 6.716 0 3.193 1.511 5.214 5.314 6.153l3.116.75c2.337.564 3.115 1.551 3.115 2.913 0 1.737-1.649 2.442-4.765 2.442-4.627 0-6.551-2.49-7.651-5.918l-1.513-4.696C19.472 11.255 16.402 9 10.31 9 3.574 9 0 13.368 0 20.789c0 7.138 3.574 10.989 9.989 10.989 5.176 0 7.651-2.49 7.651-2.49"/>
</svg>
